<svg xmlns="http://www.w3.org/2000/svg" xmlns:xlink="http://www.w3.org/1999/xlink" width="96" height="96" x="0" y="0" enable-background="new 0 0 96 96" version="1.1" viewBox="0 0 96 96" xml:space="preserve"><g id="DO_NOT_EDIT_-_BOUNDING_BOX"><rect id="BOUNDING_BOX" width="96" height="96" fill="none"/></g><g id="DO_NOT_EDIT_-_SHADOW"><path id="SHADOW" d="M88.023,49c0,29.633-10.364,40-40,40c-29.635,0-40-10.367-40-40c0-29.634,10.366-40,40-40 C77.659,9,88.023,19.365,88.023,49z" opacity=".4"/></g><g id="GRAY_BACKGROUNDS"><linearGradient id="GRAY_5_1_" x1="47.999" x2="47.999" y1="8.011" y2="87.99" gradientUnits="userSpaceOnUse"><stop offset=".15" style="stop-color:#f7f7f8"/><stop offset=".624" style="stop-color:#d9d9db"/><stop offset=".882" style="stop-color:#cdcdd0"/></linearGradient><path id="GRAY_5" fill="url(#GRAY_5_1_)" fill-rule="evenodd" d="M8,47.989c0,29.633,10.365,40,40,40 c29.637,0,40-10.367,40-40c0-28.985-9.926-39.53-38.091-39.979h-3.817C17.928,8.459,8,19.004,8,47.989z" clip-rule="evenodd"/><linearGradient id="HIGHLIGHT_GRA5_1_" x1="47.999" x2="47.999" y1="8" y2="88.001" gradientUnits="userSpaceOnUse"><stop offset=".036" style="stop-color:#fff"/><stop offset=".337" style="stop-color:#e1e1e3"/><stop offset=".987" style="stop-color:#96969a"/><stop offset="1" style="stop-color:#949499"/></linearGradient><path id="HIGHLIGHT_GRA5" fill="url(#HIGHLIGHT_GRA5_1_)" d="M48,8C18.365,8,8,18.365,8,48 c0,29.633,10.365,40,40,40c29.637,0,40-10.367,40-40C88,18.365,77.637,8,48,8z M48,87.023C18.842,87.023,9,77.176,9,48 S18.842,8.977,48,8.977S87,18.824,87,48S77.158,87.023,48,87.023z" opacity=".25"/><g id="GRAY4" display="none"><linearGradient id="GRAY_4_1_" x1="47.999" x2="47.999" y1="8.011" y2="87.99" gradientUnits="userSpaceOnUse"><stop offset=".036" style="stop-color:#e0e0e0"/><stop offset=".326" style="stop-color:#d6d6d6"/><stop offset=".815" style="stop-color:#bcbcbc"/><stop offset="1" style="stop-color:#b0b0b0"/></linearGradient><path id="GRAY_4" fill="url(#GRAY_4_1_)" fill-rule="evenodd" d="M8,47.989 c0,29.633,10.365,40,40,40c29.637,0,40-10.367,40-40c0-28.985-9.926-39.53-38.091-39.979h-3.817C17.928,8.459,8,19.004,8,47.989z" clip-rule="evenodd" display="inline"/><linearGradient id="HIGHLIGHT_GRA4_2_" x1="47.999" x2="47.999" y1="8" y2="88.001" gradientUnits="userSpaceOnUse"><stop offset=".036" style="stop-color:#e8e8e8"/><stop offset=".298" style="stop-color:#dedede"/><stop offset=".739" style="stop-color:#c4c4c4"/><stop offset="1" style="stop-color:#b1b1b1"/></linearGradient><path id="HIGHLIGHT_GRA4_1_" fill="url(#HIGHLIGHT_GRA4_2_)" d="M48,8C18.365,8,8,18.365,8,48 c0,29.633,10.365,40,40,40c29.637,0,40-10.367,40-40C88,18.365,77.637,8,48,8z M48,87.023C18.842,87.023,9,77.176,9,48 S18.842,8.977,48,8.977S87,18.824,87,48S77.158,87.023,48,87.023z" display="inline"/></g><g id="GRAY3" display="none"><linearGradient id="GRAY_3_1_" x1="47.999" x2="47.999" y1="8.011" y2="87.99" gradientUnits="userSpaceOnUse"><stop offset=".036" style="stop-color:#e9e9e9"/><stop offset=".322" style="stop-color:#dfdfdf"/><stop offset=".803" style="stop-color:#c5c5c5"/><stop offset="1" style="stop-color:#b8b8b8"/></linearGradient><path id="GRAY_3" fill="url(#GRAY_3_1_)" fill-rule="evenodd" d="M8,47.989 c0,29.633,10.365,40,40,40c29.637,0,40-10.367,40-40c0-28.985-9.926-39.53-38.091-39.979h-3.817C17.928,8.459,8,19.004,8,47.989z" clip-rule="evenodd" display="inline"/><linearGradient id="HIGHLIGHT_GRA3_2_" x1="47.999" x2="47.999" y1="8" y2="88.001" gradientUnits="userSpaceOnUse"><stop offset=".036" style="stop-color:#efefef"/><stop offset=".313" style="stop-color:#e5e5e5"/><stop offset=".78" style="stop-color:#cbcbcb"/><stop offset="1" style="stop-color:#bcbcbc"/></linearGradient><path id="HIGHLIGHT_GRA3_1_" fill="url(#HIGHLIGHT_GRA3_2_)" d="M48,8C18.365,8,8,18.365,8,48 c0,29.633,10.365,40,40,40c29.637,0,40-10.367,40-40C88,18.365,77.637,8,48,8z M48,87.023C18.842,87.023,9,77.176,9,48 S18.842,8.977,48,8.977S87,18.824,87,48S77.158,87.023,48,87.023z" display="inline"/></g><g id="GRAY2" display="none"><linearGradient id="GRAY_2_1_" x1="47.999" x2="47.999" y1="8.011" y2="87.99" gradientUnits="userSpaceOnUse"><stop offset=".036" style="stop-color:#eee"/><stop offset=".326" style="stop-color:#e4e4e4"/><stop offset=".815" style="stop-color:#cacaca"/><stop offset="1" style="stop-color:#bebebe"/></linearGradient><path id="GRAY_2" fill="url(#GRAY_2_1_)" fill-rule="evenodd" d="M8,47.989 c0,29.633,10.365,40,40,40c29.637,0,40-10.367,40-40c0-28.985-9.926-39.53-38.091-39.979h-3.817C17.928,8.459,8,19.004,8,47.989z" clip-rule="evenodd" display="inline"/><linearGradient id="HIGHLIGHT_GRA2_1_" x1="47.999" x2="47.999" y1="8" y2="88.001" gradientUnits="userSpaceOnUse"><stop offset=".036" style="stop-color:#f2f2f2"/><stop offset=".313" style="stop-color:#e8e8e8"/><stop offset=".78" style="stop-color:#cecece"/><stop offset="1" style="stop-color:#bfbfbf"/></linearGradient><path id="HIGHLIGHT_GRA2" fill="url(#HIGHLIGHT_GRA2_1_)" d="M48,8C18.365,8,8,18.365,8,48 c0,29.633,10.365,40,40,40c29.637,0,40-10.367,40-40C88,18.365,77.637,8,48,8z M48,87.023C18.842,87.023,9,77.176,9,48 S18.842,8.977,48,8.977S87,18.824,87,48S77.158,87.023,48,87.023z" display="inline"/></g><g id="GRAY1" display="none"><linearGradient id="GRAY_1_1_" x1="47.999" x2="47.999" y1="8.011" y2="87.99" gradientUnits="userSpaceOnUse"><stop offset=".036" style="stop-color:#f9f9f9"/><stop offset=".21" style="stop-color:#efefef"/><stop offset=".504" style="stop-color:#d6d6d5"/><stop offset=".83" style="stop-color:#b2b2b0"/><stop offset="1" style="stop-color:#ababa8"/></linearGradient><path id="GRAY_1" fill="url(#GRAY_1_1_)" fill-rule="evenodd" d="M8,47.989 c0,29.633,10.365,40,40,40c29.637,0,40-10.367,40-40c0-28.985-9.926-39.53-38.091-39.979h-3.817C17.928,8.459,8,19.004,8,47.989z" clip-rule="evenodd" display="inline"/><linearGradient id="HIGHLIGHT_GRA1_1_" x1="47.999" x2="47.999" y1="8" y2="88.001" gradientUnits="userSpaceOnUse"><stop offset=".036" style="stop-color:#fcfcfc"/><stop offset=".226" style="stop-color:#f3f3f2"/><stop offset=".547" style="stop-color:#dad9d8"/><stop offset=".958" style="stop-color:#b2b0ad"/><stop offset="1" style="stop-color:#adaba8"/></linearGradient><path id="HIGHLIGHT_GRA1" fill="url(#HIGHLIGHT_GRA1_1_)" d="M48,8C18.365,8,8,18.365,8,48 c0,29.633,10.365,40,40,40c29.637,0,40-10.367,40-40C88,18.365,77.637,8,48,8z M48,87.023C18.842,87.023,9,77.176,9,48 S18.842,8.977,48,8.977S87,18.824,87,48S77.158,87.023,48,87.023z" display="inline"/></g></g><g id="ORANGE_BACKGROUNDS" display="none"><g id="ORANGE_5" display="inline"><linearGradient id="RED_x2F_ORANGE_5_2_" x1="47.999" x2="47.999" y1="8.011" y2="87.99" gradientUnits="userSpaceOnUse"><stop offset="0" style="stop-color:#ffdb62"/><stop offset=".139" style="stop-color:#fad15c"/><stop offset=".374" style="stop-color:#edb74d"/><stop offset=".485" style="stop-color:#e6a844"/><stop offset="1" style="stop-color:#c96b25"/></linearGradient><path id="RED_x2F_ORANGE_5_1_" fill="url(#RED_x2F_ORANGE_5_2_)" d="M8,47.988c0,29.634,10.365,40.001,40,40.001 c29.637,0,40-10.367,40-40.001c0-28.984-9.926-39.529-38.091-39.978h-3.817C17.928,8.459,8,19.004,8,47.988z"/><linearGradient id="HIGHLIGHTS_RO5_1_" x1="47.999" x2="47.999" y1="8.256" y2="87.504" gradientUnits="userSpaceOnUse"><stop offset="0" style="stop-color:#fff"/><stop offset=".096" style="stop-color:#fdf8f5"/><stop offset=".258" style="stop-color:#f6e6db"/><stop offset=".467" style="stop-color:#ebc9af"/><stop offset=".714" style="stop-color:#dca073"/><stop offset=".99" style="stop-color:#ca6d28"/><stop offset="1" style="stop-color:#c96b25"/></linearGradient><path id="HIGHLIGHTS_RO5" fill="url(#HIGHLIGHTS_RO5_1_)" d="M48,8C18.365,8,8,18.365,8,48 c0,29.633,10.365,40,40,40c29.637,0,40-10.367,40-40C88,18.365,77.637,8,48,8z M48,87.023C18.842,87.023,9,77.176,9,48 S18.842,8.977,48,8.977S87,18.824,87,48S77.158,87.023,48,87.023z" opacity=".25"/></g><g id="ORANGE_4"><linearGradient id="RED_x2F_ORANGE_4_1_" x1="47.999" x2="47.999" y1="8.011" y2="87.99" gradientUnits="userSpaceOnUse"><stop offset=".036" style="stop-color:#fbbf60"/><stop offset=".211" style="stop-color:#f8b556"/><stop offset=".503" style="stop-color:#f19b3d"/><stop offset="1" style="stop-color:#c76121"/></linearGradient><path id="RED_x2F_ORANGE_4_2_" fill="url(#RED_x2F_ORANGE_4_1_)" d="M8,47.988c0,29.634,10.365,40.001,40,40.001 c29.637,0,40-10.367,40-40.001c0-28.984-9.926-39.529-38.091-39.978h-3.817C17.928,8.459,8,19.004,8,47.988z" display="inline"/><linearGradient id="HIGHLIGHTS_RO4_2_" x1="47.999" x2="47.999" y1="8.256" y2="87.504" gradientUnits="userSpaceOnUse"><stop offset=".036" style="stop-color:#fff"/><stop offset=".127" style="stop-color:#fdf8f5"/><stop offset=".281" style="stop-color:#f6e5db"/><stop offset=".48" style="stop-color:#ebc6af"/><stop offset=".715" style="stop-color:#dc9c73"/><stop offset=".978" style="stop-color:#c96628"/><stop offset="1" style="stop-color:#c76121"/></linearGradient><path id="HIGHLIGHTS_RO4_1_" fill="url(#HIGHLIGHTS_RO4_2_)" d="M48,8C18.365,8,8,18.365,8,48 c0,29.633,10.365,40,40,40c29.637,0,40-10.367,40-40C88,18.365,77.637,8,48,8z M48,87.023C18.842,87.023,9,77.176,9,48 S18.842,8.977,48,8.977S87,18.824,87,48S77.158,87.023,48,87.023z" display="inline" opacity=".25"/></g><g id="ORANGE_3"><linearGradient id="RED_x2F_ORANGE_3_2_" x1="47.999" x2="47.999" y1="8.011" y2="87.99" gradientUnits="userSpaceOnUse"><stop offset=".036" style="stop-color:#f6b85e"/><stop offset=".201" style="stop-color:#f4ae5a"/><stop offset=".478" style="stop-color:#ee9451"/><stop offset=".539" style="stop-color:#ec8d4e"/><stop offset=".823" style="stop-color:#d46a3b"/><stop offset="1" style="stop-color:#c95932"/></linearGradient><path id="RED_x2F_ORANGE_3_1_" fill="url(#RED_x2F_ORANGE_3_2_)" d="M8,47.988c0,29.634,10.365,40.001,40,40.001 c29.637,0,40-10.367,40-40.001c0-28.984-9.926-39.529-38.091-39.978h-3.817C17.928,8.459,8,19.004,8,47.988z" display="inline"/><linearGradient id="HIGHLIGHTS_RO3_2_" x1="47.999" x2="47.999" y1="8.256" y2="87.504" gradientUnits="userSpaceOnUse"><stop offset=".036" style="stop-color:#fff"/><stop offset=".133" style="stop-color:#fcf7f5"/><stop offset=".297" style="stop-color:#f5e2db"/><stop offset=".507" style="stop-color:#eabfaf"/><stop offset=".754" style="stop-color:#da8f74"/><stop offset="1" style="stop-color:#c95932"/></linearGradient><path id="HIGHLIGHTS_RO3_1_" fill="url(#HIGHLIGHTS_RO3_2_)" d="M48,8C18.365,8,8,18.365,8,48 c0,29.633,10.365,40,40,40c29.637,0,40-10.367,40-40C88,18.365,77.637,8,48,8z M48,87.023C18.842,87.023,9,77.176,9,48 S18.842,8.977,48,8.977S87,18.824,87,48S77.158,87.023,48,87.023z" display="inline" opacity=".25"/></g><g id="ORANGE_2"><linearGradient id="RED_x2F_ORANGE_2_1_" x1="47.999" x2="47.999" y1="8.011" y2="87.99" gradientUnits="userSpaceOnUse"><stop offset=".036" style="stop-color:#faa824"/><stop offset=".374" style="stop-color:#ea8a20"/><stop offset="1" style="stop-color:#c74a17"/></linearGradient><path id="RED_x2F_ORANGE_2_2_" fill="url(#RED_x2F_ORANGE_2_1_)" d="M8,47.988c0,29.634,10.365,40.001,40,40.001 c29.637,0,40-10.367,40-40.001c0-28.984-9.926-39.529-38.091-39.978h-3.817C17.928,8.459,8,19.004,8,47.988z" display="inline"/><linearGradient id="HIGHLIGHTS_RO2_1_" x1="47.999" x2="47.999" y1="8.256" y2="87.504" gradientUnits="userSpaceOnUse"><stop offset=".036" style="stop-color:#fff"/><stop offset=".185" style="stop-color:#f8e8e1"/><stop offset=".51" style="stop-color:#e5ac95"/><stop offset=".983" style="stop-color:#c84d1b"/><stop offset="1" style="stop-color:#c74a17"/></linearGradient><path id="HIGHLIGHTS_RO2_2_" fill="url(#HIGHLIGHTS_RO2_1_)" d="M48,8C18.365,8,8,18.365,8,48 c0,29.633,10.365,40,40,40c29.637,0,40-10.367,40-40C88,18.365,77.637,8,48,8z M48,87.023C18.842,87.023,9,77.176,9,48 S18.842,8.977,48,8.977S87,18.824,87,48S77.158,87.023,48,87.023z" display="inline" opacity=".25"/></g><g id="ORANGE_1"><linearGradient id="RED_x2F_ORANGE_1_2_" x1="47.999" x2="47.999" y1="8.011" y2="87.99" gradientUnits="userSpaceOnUse"><stop offset=".036" style="stop-color:#ff8a36"/><stop offset=".349" style="stop-color:#ef7130"/><stop offset="1" style="stop-color:#c73321"/></linearGradient><path id="RED_x2F_ORANGE_1_1_" fill="url(#RED_x2F_ORANGE_1_2_)" d="M8,47.988c0,29.634,10.365,40.001,40,40.001 c29.637,0,40-10.367,40-40.001c0-28.984-9.926-39.529-38.091-39.978h-3.817C17.928,8.459,8,19.004,8,47.988z" display="inline"/><linearGradient id="HIGHLIGHTS_RO1_2_" x1="47.999" x2="47.999" y1="8.256" y2="87.504" gradientUnits="userSpaceOnUse"><stop offset=".036" style="stop-color:#fff"/><stop offset=".127" style="stop-color:#fcf7f5"/><stop offset=".281" style="stop-color:#f5e0db"/><stop offset=".48" style="stop-color:#eabbaf"/><stop offset=".715" style="stop-color:#da8873"/><stop offset=".978" style="stop-color:#c64828"/><stop offset="1" style="stop-color:#c44221"/></linearGradient><path id="HIGHLIGHTS_RO1_1_" fill="url(#HIGHLIGHTS_RO1_2_)" d="M48,8C18.365,8,8,18.365,8,48 c0,29.633,10.365,40,40,40c29.637,0,40-10.367,40-40C88,18.365,77.637,8,48,8z M48,87.023C18.842,87.023,9,77.176,9,48 S18.842,8.977,48,8.977S87,18.824,87,48S77.158,87.023,48,87.023z" display="inline" opacity=".25"/></g></g><g id="GREEN_BACKGROUNDS" display="none"><g id="GREEN4" display="inline"><linearGradient id="GREEN_4_1_" x1="47.999" x2="47.999" y1="8.011" y2="87.99" gradientUnits="userSpaceOnUse"><stop offset=".036" style="stop-color:#6bab40"/><stop offset=".606" style="stop-color:#537734"/><stop offset="1" style="stop-color:#4f5c26"/></linearGradient><path id="GREEN_4_3_" fill="url(#GREEN_4_1_)" fill-rule="evenodd" d="M8,47.989c0,29.633,10.365,40,40,40 c29.637,0,40-10.367,40-40c0-28.985-9.926-39.53-38.091-39.979h-3.817C17.928,8.459,8,19.004,8,47.989z" clip-rule="evenodd"/><linearGradient id="HIGHLIGHT_GR4_1_" x1="47.999" x2="47.999" y1="8" y2="88.001" gradientUnits="userSpaceOnUse"><stop offset=".036" style="stop-color:#fff"/><stop offset=".826" style="stop-color:#6f7a4e"/><stop offset="1" style="stop-color:#4f5c26"/></linearGradient><path id="HIGHLIGHT_GR4" fill="url(#HIGHLIGHT_GR4_1_)" d="M48,8C18.365,8,8,18.365,8,48c0,29.633,10.365,40,40,40 c29.637,0,40-10.367,40-40C88,18.365,77.637,8,48,8z M48,87.023C18.842,87.023,9,77.176,9,48S18.842,8.977,48,8.977 S87,18.824,87,48S77.158,87.023,48,87.023z" opacity=".25"/></g><g id="GREEN3"><linearGradient id="GREEN_3_1_" x1="47.999" x2="47.999" y1="8.011" y2="87.99" gradientUnits="userSpaceOnUse"><stop offset=".036" style="stop-color:#70b83b"/><stop offset=".207" style="stop-color:#6aae37"/><stop offset=".494" style="stop-color:#5b942b"/><stop offset=".863" style="stop-color:#426917"/><stop offset="1" style="stop-color:#38570f"/></linearGradient><path id="GREEN_3_2_" fill="url(#GREEN_3_1_)" fill-rule="evenodd" d="M8,47.989 c0,29.633,10.365,40,40,40c29.637,0,40-10.367,40-40c0-28.985-9.926-39.53-38.091-39.979h-3.817C17.928,8.459,8,19.004,8,47.989z" clip-rule="evenodd" display="inline"/><linearGradient id="HIGHLIGHT_GR3_1_" x1="47.999" x2="47.999" y1="8" y2="88.001" gradientUnits="userSpaceOnUse"><stop offset=".036" style="stop-color:#fff"/><stop offset=".122" style="stop-color:#f7f8f5"/><stop offset=".268" style="stop-color:#e1e5db"/><stop offset=".455" style="stop-color:#bdc7af"/><stop offset=".676" style="stop-color:#8b9d73"/><stop offset=".924" style="stop-color:#4d6828"/><stop offset="1" style="stop-color:#38570f"/></linearGradient><path id="HIGHLIGHT_GR3" fill="url(#HIGHLIGHT_GR3_1_)" d="M48,8C18.365,8,8,18.365,8,48 c0,29.633,10.365,40,40,40c29.637,0,40-10.367,40-40C88,18.365,77.637,8,48,8z M48,87.023C18.842,87.023,9,77.176,9,48 S18.842,8.977,48,8.977S87,18.824,87,48S77.158,87.023,48,87.023z" display="inline" opacity=".25"/></g><g id="GREEN2"><linearGradient id="GREEN_2_1_" x1="47.999" x2="47.999" y1="8.011" y2="87.99" gradientUnits="userSpaceOnUse"><stop offset=".036" style="stop-color:#75b561"/><stop offset=".223" style="stop-color:#6eab5e"/><stop offset=".538" style="stop-color:#5b9157"/><stop offset=".667" style="stop-color:#528454"/><stop offset="1" style="stop-color:#4b6145"/></linearGradient><path id="GREEN_2_2_" fill="url(#GREEN_2_1_)" fill-rule="evenodd" d="M8,47.989 c0,29.633,10.365,40,40,40c29.637,0,40-10.367,40-40c0-28.985-9.926-39.53-38.091-39.979h-3.817C17.928,8.459,8,19.004,8,47.989z" clip-rule="evenodd" display="inline"/><linearGradient id="HIGHLIGHT_GR2_1_" x1="47.999" x2="47.999" y1="8" y2="88.001" gradientUnits="userSpaceOnUse"><stop offset=".036" style="stop-color:#fff"/><stop offset=".14" style="stop-color:#f5f7f5"/><stop offset=".317" style="stop-color:#dce0db"/><stop offset=".543" style="stop-color:#b2bbaf"/><stop offset=".808" style="stop-color:#798974"/><stop offset="1" style="stop-color:#4b6145"/></linearGradient><path id="HIGHLIGHT_GR2" fill="url(#HIGHLIGHT_GR2_1_)" d="M48,8C18.365,8,8,18.365,8,48 c0,29.633,10.365,40,40,40c29.637,0,40-10.367,40-40C88,18.365,77.637,8,48,8z M48,87.023C18.842,87.023,9,77.176,9,48 S18.842,8.977,48,8.977S87,18.824,87,48S77.158,87.023,48,87.023z" display="inline" opacity=".25"/></g><g id="GREEN1"><linearGradient id="GREEN_1_1_" x1="47.999" x2="47.999" y1="8.011" y2="87.99" gradientUnits="userSpaceOnUse"><stop offset=".036" style="stop-color:#9cd061"/><stop offset=".219" style="stop-color:#94c957"/><stop offset=".527" style="stop-color:#7db63d"/><stop offset=".691" style="stop-color:#6faa2c"/><stop offset="1" style="stop-color:#4a8021"/></linearGradient><path id="GREEN_1_2_" fill="url(#GREEN_1_1_)" fill-rule="evenodd" d="M8,47.989 c0,29.633,10.365,40,40,40c29.637,0,40-10.367,40-40c0-28.985-9.926-39.53-38.091-39.979h-3.817C17.928,8.459,8,19.004,8,47.989z" clip-rule="evenodd" display="inline"/><linearGradient id="HIGHLIGHT_GR1_1_" x1="47.999" x2="47.999" y1="8" y2="88.001" gradientUnits="userSpaceOnUse"><stop offset=".036" style="stop-color:#fff"/><stop offset=".127" style="stop-color:#f7f9f5"/><stop offset=".281" style="stop-color:#e1eadb"/><stop offset=".48" style="stop-color:#bed1af"/><stop offset=".715" style="stop-color:#8daf73"/><stop offset=".978" style="stop-color:#4f8428"/><stop offset="1" style="stop-color:#4a8021"/></linearGradient><path id="HIGHLIGHT_GR1" fill="url(#HIGHLIGHT_GR1_1_)" d="M48,8C18.365,8,8,18.365,8,48 c0,29.633,10.365,40,40,40c29.637,0,40-10.367,40-40C88,18.365,77.637,8,48,8z M48,87.023C18.842,87.023,9,77.176,9,48 S18.842,8.977,48,8.977S87,18.824,87,48S77.158,87.023,48,87.023z" display="inline" opacity=".25"/></g></g><g id="BLUE_BACKGROUNDS" display="none"><g id="BLUE_4_2_" display="inline"><linearGradient id="BLUE_4_3_" x1="47.999" x2="47.999" y1="8.011" y2="87.99" gradientUnits="userSpaceOnUse"><stop offset=".036" style="stop-color:#4791d9"/><stop offset=".25" style="stop-color:#4288cf"/><stop offset=".61" style="stop-color:#366eb5"/><stop offset="1" style="stop-color:#264c91"/></linearGradient><path id="BLUE_4_1_" fill="url(#BLUE_4_3_)" d="M8,47.989c0,29.633,10.365,40,40,40c29.637,0,40-10.367,40-40 c0-28.985-9.926-39.53-38.091-39.979h-3.817C17.928,8.459,8,19.004,8,47.989z"/><linearGradient id="HIGHLIGHT_BLU4_1_" x1="47.999" x2="47.999" y1="8.256" y2="87.504" gradientUnits="userSpaceOnUse"><stop offset=".036" style="stop-color:#fff"/><stop offset=".129" style="stop-color:#f5f7fa"/><stop offset=".286" style="stop-color:#dbe1ed"/><stop offset=".488" style="stop-color:#afbdd7"/><stop offset=".727" style="stop-color:#738cb8"/><stop offset=".994" style="stop-color:#284d92"/><stop offset="1" style="stop-color:#264c91"/></linearGradient><path id="HIGHLIGHT_BLU4" fill="url(#HIGHLIGHT_BLU4_1_)" d="M48,8C18.365,8,8,18.365,8,48 c0,29.633,10.365,40,40,40c29.637,0,40-10.367,40-40C88,18.365,77.637,8,48,8z M48,87.023C18.842,87.023,9,77.176,9,48 S18.842,8.977,48,8.977S87,18.824,87,48S77.158,87.023,48,87.023z" opacity=".25"/></g><g id="BLUE_3_2_"><linearGradient id="BLUE_3_3_" x1="47.999" x2="47.999" y1="8.011" y2="87.99" gradientUnits="userSpaceOnUse"><stop offset=".036" style="stop-color:#66a2d3"/><stop offset=".2" style="stop-color:#5c9bce"/><stop offset=".477" style="stop-color:#4289c1"/><stop offset=".832" style="stop-color:#176cab"/><stop offset="1" style="stop-color:#005da0"/></linearGradient><path id="BLUE_3_1_" fill="url(#BLUE_3_3_)" d="M8,47.989c0,29.633,10.365,40,40,40c29.637,0,40-10.367,40-40 c0-28.985-9.926-39.53-38.091-39.979h-3.817C17.928,8.459,8,19.004,8,47.989z" display="inline"/><linearGradient id="HIGHLIGHT_BLU3_1_" x1="47.999" x2="47.999" y1="8.256" y2="87.504" gradientUnits="userSpaceOnUse"><stop offset=".036" style="stop-color:#fff"/><stop offset=".118" style="stop-color:#f5f9fc"/><stop offset=".257" style="stop-color:#dbe9f5"/><stop offset=".436" style="stop-color:#afcfea"/><stop offset=".647" style="stop-color:#73acda"/><stop offset=".884" style="stop-color:#287fc6"/><stop offset="1" style="stop-color:#0067bc"/></linearGradient><path id="HIGHLIGHT_BLU3" fill="url(#HIGHLIGHT_BLU3_1_)" d="M48,8C18.365,8,8,18.365,8,48 c0,29.633,10.365,40,40,40c29.637,0,40-10.367,40-40C88,18.365,77.637,8,48,8z M48,87.023C18.842,87.023,9,77.176,9,48 S18.842,8.977,48,8.977S87,18.824,87,48S77.158,87.023,48,87.023z" display="inline" opacity=".25"/></g><g id="BLUE_2_2_"><linearGradient id="BLUE_2_3_" x1="47.999" x2="47.999" y1="8.011" y2="87.99" gradientUnits="userSpaceOnUse"><stop offset=".036" style="stop-color:#63b3e0"/><stop offset=".204" style="stop-color:#59acda"/><stop offset=".487" style="stop-color:#3f99c9"/><stop offset=".85" style="stop-color:#147bae"/><stop offset="1" style="stop-color:#006da2"/></linearGradient><path id="BLUE_2_1_" fill="url(#BLUE_2_3_)" d="M8,47.989c0,29.633,10.365,40,40,40c29.637,0,40-10.367,40-40 c0-28.985-9.926-39.53-38.091-39.979h-3.817C17.928,8.459,8,19.004,8,47.989z" display="inline"/><linearGradient id="HIGHLIGHT_BLU2_1_" x1="47.999" x2="47.999" y1="8.256" y2="87.504" gradientUnits="userSpaceOnUse"><stop offset=".036" style="stop-color:#fff"/><stop offset=".123" style="stop-color:#f5f9fb"/><stop offset=".27" style="stop-color:#dbe7f0"/><stop offset=".46" style="stop-color:#afcbdd"/><stop offset=".684" style="stop-color:#73a4c4"/><stop offset=".935" style="stop-color:#2873a4"/><stop offset="1" style="stop-color:#13659b"/></linearGradient><path id="HIGHLIGHT_BLU2" fill="url(#HIGHLIGHT_BLU2_1_)" d="M48,8C18.365,8,8,18.365,8,48 c0,29.633,10.365,40,40,40c29.637,0,40-10.367,40-40C88,18.365,77.637,8,48,8z M48,87.023C18.842,87.023,9,77.176,9,48 S18.842,8.977,48,8.977S87,18.824,87,48S77.158,87.023,48,87.023z" display="inline" opacity=".25"/></g><g id="BLUE_1_1_"><linearGradient id="BLUE_1_3_" x1="47.999" x2="47.999" y1="8.011" y2="87.99" gradientUnits="userSpaceOnUse"><stop offset=".036" style="stop-color:#6bcfdb"/><stop offset=".194" style="stop-color:#61c7d4"/><stop offset=".462" style="stop-color:#47b0c3"/><stop offset=".803" style="stop-color:#1c8ca6"/><stop offset="1" style="stop-color:#007594"/></linearGradient><path id="BLUE_1_2_" fill="url(#BLUE_1_3_)" d="M8,47.989c0,29.633,10.365,40,40,40c29.637,0,40-10.367,40-40 c0-28.985-9.926-39.53-38.091-39.979h-3.817C17.928,8.459,8,19.004,8,47.989z" display="inline"/><linearGradient id="HIGHLIGHT_BLU1_1_" x1="47.999" x2="47.999" y1="8.256" y2="87.504" gradientUnits="userSpaceOnUse"><stop offset=".036" style="stop-color:#fffdf2"/><stop offset=".106" style="stop-color:#f5f8f0"/><stop offset=".225" style="stop-color:#dbebe9"/><stop offset=".377" style="stop-color:#afd5df"/><stop offset=".539" style="stop-color:#7abad2"/><stop offset="1" style="stop-color:#00879a"/></linearGradient><path id="HIGHLIGHT_BLU1" fill="url(#HIGHLIGHT_BLU1_1_)" d="M48,8C18.365,8,8,18.365,8,48 c0,29.633,10.365,40,40,40c29.637,0,40-10.367,40-40C88,18.365,77.637,8,48,8z M48,87.023C18.842,87.023,9,77.176,9,48 S18.842,8.977,48,8.977S87,18.824,87,48S77.158,87.023,48,87.023z" display="inline" opacity=".25"/></g></g><g id="VIOLET_x2F_PINK_BACKGROUNDS" display="none"><g id="PINK_2_2_" display="inline"><linearGradient id="PINK_2_3_" x1="47.999" x2="47.999" y1="8.011" y2="87.99" gradientUnits="userSpaceOnUse"><stop offset=".036" style="stop-color:#ff61c7"/><stop offset=".194" style="stop-color:#f759c1"/><stop offset=".438" style="stop-color:#e145b1"/><stop offset=".736" style="stop-color:#be2396"/><stop offset="1" style="stop-color:#99007a"/></linearGradient><path id="PINK_2_1_" fill="url(#PINK_2_3_)" d="M8,47.988c0,29.634,10.365,40.001,40,40.001c29.637,0,40-10.367,40-40.001 c0-28.984-9.926-39.529-38.091-39.978h-3.817C17.928,8.459,8,19.004,8,47.988z"/><linearGradient id="HIGHLIGHT_PI2_2_" x1="47.999" x2="47.999" y1="8.255" y2="87.504" gradientUnits="userSpaceOnUse"><stop offset=".036" style="stop-color:#fff"/><stop offset=".119" style="stop-color:#fcf7fb"/><stop offset=".247" style="stop-color:#f3e1f0"/><stop offset=".404" style="stop-color:#e5bedd"/><stop offset=".584" style="stop-color:#d18cc3"/><stop offset=".784" style="stop-color:#b84da2"/><stop offset=".997" style="stop-color:#99017b"/><stop offset="1" style="stop-color:#99007a"/></linearGradient><path id="HIGHLIGHT_PI2_1_" fill="url(#HIGHLIGHT_PI2_2_)" d="M48,8C18.365,8,8,18.365,8,48 c0,29.632,10.365,40,40,40c29.637,0,40-10.367,40-40C88,18.365,77.637,8,48,8z M48,87.023C18.842,87.023,9,77.176,9,48 C9,18.824,18.842,8.976,48,8.976S87,18.824,87,48C87,77.176,77.158,87.023,48,87.023z" opacity=".25"/></g><g id="PINK_1_2_"><linearGradient id="PINK_1_3_" x1="47.999" x2="47.999" y1="8.011" y2="87.99" gradientUnits="userSpaceOnUse"><stop offset=".036" style="stop-color:#e64dd4"/><stop offset=".216" style="stop-color:#de46ce"/><stop offset=".493" style="stop-color:#c832bc"/><stop offset=".832" style="stop-color:#a5129f"/><stop offset="1" style="stop-color:#91008f"/></linearGradient><path id="PINK_1_1_" fill="url(#PINK_1_3_)" d="M8,47.989c0,29.633,10.365,40,40,40c29.637,0,40-10.367,40-40 c0-28.985-9.926-39.53-38.091-39.979h-3.817C17.928,8.459,8,19.004,8,47.989z" display="inline"/><linearGradient id="HIGHLIGHT_PI2_3_" x1="47.999" x2="47.999" y1="8.255" y2="87.504" gradientUnits="userSpaceOnUse"><stop offset=".036" style="stop-color:#fff"/><stop offset=".119" style="stop-color:#fcf7fc"/><stop offset=".247" style="stop-color:#f2e1f2"/><stop offset=".404" style="stop-color:#e3bee2"/><stop offset=".584" style="stop-color:#ce8ccd"/><stop offset=".784" style="stop-color:#b24db1"/><stop offset=".997" style="stop-color:#91018f"/><stop offset="1" style="stop-color:#91008f"/></linearGradient><path id="HIGHLIGHT_PI2" fill="url(#HIGHLIGHT_PI2_3_)" d="M48,8C18.365,8,8,18.365,8,48 c0,29.632,10.365,40,40,40c29.637,0,40-10.367,40-40C88,18.365,77.637,8,48,8z M48,87.023C18.842,87.023,9,77.176,9,48 C9,18.824,18.842,8.976,48,8.976S87,18.824,87,48C87,77.176,77.158,87.023,48,87.023z" display="inline" opacity=".25"/></g><g id="VIOLET_2_2_"><linearGradient id="VIOLET_2_3_" x1="47.999" x2="47.999" y1="8.011" y2="90.757" gradientUnits="userSpaceOnUse"><stop offset=".036" style="stop-color:#ba66e0"/><stop offset=".217" style="stop-color:#b260d8"/><stop offset=".497" style="stop-color:#9d51c2"/><stop offset=".839" style="stop-color:#7c379f"/><stop offset="1" style="stop-color:#69298c"/></linearGradient><path id="VIOLET_2_1_" fill="url(#VIOLET_2_3_)" d="M8,47.989c0,29.633,10.365,40,40,40 c29.637,0,40-10.367,40-40c0-28.985-9.926-39.53-38.091-39.979h-3.817C17.928,8.459,8,19.004,8,47.989z" display="inline"/><linearGradient id="HIGHLIGHT_VIO2_1_" x1="47.999" x2="47.999" y1="8.255" y2="87.504" gradientUnits="userSpaceOnUse"><stop offset=".036" style="stop-color:#fff"/><stop offset=".13" style="stop-color:#f9f7fb"/><stop offset=".275" style="stop-color:#eae1ef"/><stop offset=".452" style="stop-color:#d1bedc"/><stop offset=".656" style="stop-color:#af8cc1"/><stop offset=".879" style="stop-color:#834ea0"/><stop offset="1" style="stop-color:#69298c"/></linearGradient><path id="HIGHLIGHT_VIO2" fill="url(#HIGHLIGHT_VIO2_1_)" d="M48,8C18.365,8,8,18.365,8,48 c0,29.632,10.365,40,40,40c29.637,0,40-10.367,40-40C88,18.365,77.637,8,48,8z M48,87.023C18.842,87.023,9,77.176,9,48 C9,18.824,18.842,8.976,48,8.976S87,18.824,87,48C87,77.176,77.158,87.023,48,87.023z" display="inline" opacity=".25"/></g><g id="VIOLET_1_2_"><linearGradient id="VIOLET_1_3_" x1="47.999" x2="47.999" y1="9.762" y2="89.741" gradientUnits="userSpaceOnUse"><stop offset=".036" style="stop-color:#a14ddb"/><stop offset=".221" style="stop-color:#9949d3"/><stop offset=".505" style="stop-color:#833cbe"/><stop offset=".852" style="stop-color:#60299d"/><stop offset="1" style="stop-color:#4f1f8c"/></linearGradient><path id="VIOLET_1_1_" fill="url(#VIOLET_1_3_)" d="M8,47.989c0,29.633,10.365,40,40,40 c29.637,0,40-10.367,40-40c0-28.985-9.926-39.53-38.091-39.979h-3.817C17.928,8.459,8,19.004,8,47.989z" display="inline"/><linearGradient id="HIGHLIGHT_VIO1_1_" x1="47.999" x2="47.999" y1="8.255" y2="87.504" gradientUnits="userSpaceOnUse"><stop offset=".036" style="stop-color:#fff"/><stop offset="1" style="stop-color:#4a1f8c"/></linearGradient><path id="HIGHLIGHT_VIO1" fill="url(#HIGHLIGHT_VIO1_1_)" d="M48,8C18.365,8,8,18.365,8,48 c0,29.632,10.365,40,40,40c29.637,0,40-10.367,40-40C88,18.365,77.637,8,48,8z M48,87.023C18.842,87.023,9,77.176,9,48 C9,18.824,18.842,8.977,48,8.977S87,18.824,87,48C87,77.176,77.158,87.023,48,87.023z" display="inline" opacity=".25"/></g></g><g id="PLACE_YOUR_GRAPHIC_HERE"><g><path d="M43.982,80.064c-1.382,0.277-2.732-0.619-3.008-2.004l-3.005-15.02c-1.096,0.221-4.489,0.902-15.014,3.006 c-1.383,0.277-2.732-0.621-3.009-2.004l-4.011-20.06c-0.277-1.382,0.624-2.732,2.006-3.009l15.015-3.003l-3.002-15.015 c-0.277-1.382,0.623-2.732,2.005-3.008l20.06-4.013c1.383-0.276,2.732,0.624,3.008,2.006c2.105,10.525,2.782,13.918,3.001,15.016 l15.018-3.004c1.384-0.276,2.733,0.624,3.009,2.006l4.013,20.058c0.275,1.383-0.622,2.732-2.006,3.01 c-10.536,2.105-13.923,2.781-15.019,3c0.22,1.096,0.898,4.482,3.006,15.018c0.277,1.383-0.622,2.732-2.005,3.01L43.982,80.064z" opacity=".05"/><path d="M43.883,79.564c-1.107,0.221-2.187-0.498-2.408-1.604l-3.081-15.406c-0.007-0.037-0.015-0.078-0.019-0.113 c-0.038,0.008-15.52,3.105-15.52,3.105c-1.107,0.221-2.186-0.498-2.407-1.604l-4.011-20.06c-0.223-1.106,0.498-2.186,1.603-2.408 l15.406-3.081c0.038-0.008,0.076-0.015,0.115-0.02c-0.011-0.038-0.019-0.076-0.026-0.114l-3.081-15.405 c-0.222-1.106,0.497-2.186,1.604-2.407l20.06-4.012c1.105-0.222,2.187,0.498,2.406,1.604c0,0,3.096,15.481,3.103,15.52 c0.037-0.01,0.076-0.018,0.113-0.025l15.405-3.082c1.106-0.221,2.185,0.499,2.406,1.605l4.013,20.06 c0.221,1.105-0.499,2.184-1.604,2.406c0,0-15.482,3.096-15.521,3.1c0.008,0.039,3.105,15.521,3.105,15.521 c0.222,1.104-0.497,2.184-1.604,2.406L43.883,79.564z M48.106,48.531c0.217-0.043,0.437-0.051,0.653-0.025 c-0.218-0.381-0.308-0.827-0.254-1.263c-0.188,0.107-0.393,0.184-0.611,0.228c-0.217,0.043-0.437,0.051-0.652,0.025 c0.219,0.382,0.306,0.826,0.253,1.264C47.682,48.652,47.889,48.574,48.106,48.531z" opacity=".05"/><path d="M43.782,79.063c-0.83,0.166-1.639-0.375-1.804-1.203l-3.082-15.404c-0.07-0.35-0.014-0.715,0.152-1.027 c-0.221,0.273-0.538,0.467-0.889,0.537l-15.404,3.08c-0.829,0.166-1.64-0.373-1.806-1.203l-4.011-20.059 c-0.166-0.83,0.374-1.64,1.204-1.806l15.405-3.081c0.349-0.07,0.715-0.014,1.027,0.154c-0.274-0.223-0.468-0.539-0.539-0.89 l-3.08-15.404c-0.166-0.83,0.373-1.64,1.203-1.806l20.06-4.012c0.828-0.167,1.638,0.374,1.803,1.204l3.082,15.404 c0.071,0.35,0.014,0.714-0.151,1.026c0.224-0.273,0.539-0.466,0.888-0.536l15.405-3.081c0.83-0.166,1.64,0.374,1.806,1.203 l4.011,20.06c0.166,0.83-0.372,1.639-1.203,1.805l-15.405,3.082c-0.348,0.07-0.712,0.014-1.024-0.152 c0.273,0.225,0.465,0.539,0.534,0.889l3.08,15.404c0.167,0.83-0.372,1.639-1.202,1.805L43.782,79.063z M46.341,47.251 c0.676,0.47,0.859,1.385,0.417,2.081l-7.442,11.693l7.935-11.367c0.226-0.324,0.566-0.547,0.956-0.625 c0.392-0.078,0.79-0.004,1.126,0.211l11.673,7.428L49.658,48.75c-0.675-0.471-0.857-1.384-0.417-2.079l7.435-11.683L48.75,46.342 c-0.226,0.325-0.566,0.547-0.957,0.626c-0.391,0.078-0.791,0.004-1.125-0.211l-11.702-7.445L46.341,47.251z" opacity=".05"/><path d="M43.681,78.561c-0.553,0.113-1.093-0.25-1.202-0.803l-3.083-15.404c-0.054-0.27,0.005-0.559,0.165-0.785 l8.106-11.617c0.152-0.217,0.379-0.363,0.639-0.416c0.261-0.053,0.526-0.004,0.75,0.139l11.951,7.604 c0.234,0.15,0.398,0.393,0.455,0.664l3.081,15.404c0.109,0.555-0.249,1.094-0.802,1.205L43.681,78.561z M62.354,56.604 c-0.271,0.055-0.56-0.006-0.785-0.164L49.95,48.332c-0.45-0.314-0.571-0.924-0.277-1.387l7.604-11.952 c0.149-0.234,0.392-0.4,0.664-0.455l15.404-3.081c0.554-0.111,1.092,0.249,1.204,0.802l4.011,20.059 c0.111,0.553-0.248,1.092-0.803,1.203L62.354,56.604z M22.655,64.543c-0.553,0.111-1.092-0.248-1.204-0.803l-4.012-20.058 c-0.11-0.553,0.25-1.092,0.803-1.204l15.405-3.081c0.271-0.054,0.559,0.006,0.786,0.165l11.616,8.108 c0.452,0.313,0.574,0.923,0.278,1.386l-7.605,11.951c-0.147,0.234-0.39,0.4-0.661,0.455L22.655,64.543z M47.693,46.467 c-0.26,0.052-0.526,0.003-0.75-0.14l-11.952-7.604c-0.233-0.149-0.399-0.39-0.454-0.662l-3.08-15.405 c-0.111-0.553,0.249-1.093,0.802-1.204l20.058-4.012c0.554-0.111,1.095,0.25,1.203,0.802l3.082,15.405 c0.056,0.272-0.004,0.559-0.164,0.787l-8.108,11.615C48.18,46.267,47.953,46.416,47.693,46.467z" opacity=".05"/><path d="M43.581,78.061c-0.278,0.055-0.545-0.125-0.602-0.402l-3.082-15.404c-0.027-0.137,0.003-0.279,0.083-0.395 l8.107-11.617c0.078-0.109,0.194-0.182,0.319-0.207c0.124-0.023,0.259-0.004,0.374,0.07l11.952,7.605 c0.117,0.074,0.199,0.193,0.229,0.33l3.08,15.406c0.056,0.275-0.125,0.547-0.403,0.6L43.581,78.061z M62.253,56.102 c-0.137,0.027-0.278-0.002-0.394-0.08l-11.616-8.109c-0.224-0.156-0.285-0.462-0.14-0.693l7.606-11.952 c0.075-0.118,0.193-0.199,0.33-0.227l15.406-3.081c0.276-0.056,0.547,0.124,0.6,0.401l4.014,20.06 c0.056,0.275-0.124,0.547-0.401,0.6L62.253,56.102z M22.555,64.043c-0.277,0.057-0.547-0.125-0.603-0.402L17.94,43.582 c-0.056-0.277,0.124-0.545,0.402-0.601l15.404-3.081c0.137-0.028,0.278,0.002,0.394,0.083l11.615,8.107 c0.226,0.156,0.287,0.461,0.139,0.694L38.29,60.734c-0.075,0.117-0.194,0.199-0.33,0.229L22.555,64.043z M47.592,45.965 c-0.123,0.025-0.258,0.004-0.373-0.069l-11.953-7.605c-0.119-0.074-0.2-0.194-0.228-0.331l-3.081-15.405 c-0.056-0.277,0.125-0.546,0.402-0.602l20.058-4.012c0.277-0.055,0.547,0.124,0.604,0.401l3.081,15.404 c0.026,0.138-0.002,0.279-0.084,0.394l-8.107,11.616C47.833,45.869,47.718,45.941,47.592,45.965z" opacity=".1"/><path fill="#5A7C8C" d="M48.865,50.01l11.95,7.604l3.082,15.403L43.839,77.03l-3.082-15.405L48.865,50.01z M47.85,44.937 l8.107-11.617l-3.08-15.405l-20.06,4.011l3.081,15.406L47.85,44.937z M62.511,55.073l15.404-3.082l-4.013-20.058l-15.404,3.081 l-7.604,11.952L62.511,55.073z M45.82,47.98l-11.617-8.108l-15.405,3.082l4.012,20.059l15.406-3.081L45.82,47.98z"/><g><polygon fill="#94C4D3" points="45.43 74.558 42.943 62.126 49.43 52.836 58.991 58.918 61.478 71.348"/><polygon fill="#94C4D3" points="35.238 23.596 37.724 36.028 47.285 42.11 53.772 32.818 51.285 20.387"/><polygon fill="#94C4D3" points="75.441 50.4 63.014 52.885 53.72 46.4 59.804 36.839 72.232 34.354"/><polygon fill="#94C4D3" points="24.48 60.593 36.913 58.106 42.994 48.545 33.702 42.059 21.27 44.545"/></g></g></g></svg>